<?xml version="1.0" encoding="UTF-8"?>
<svg version="1.1" xmlns="http://www.w3.org/2000/svg" width="426" height="435">
<path d="M0 0 C140.58 0 281.16 0 426 0 C426 143.55 426 287.1 426 435 C285.42 435 144.84 435 0 435 C0 291.45 0 147.9 0 0 Z " fill="#FA9932" transform="translate(0,0)"/>
<path d="M0 0 C0.6192334 0.51828369 1.2384668 1.03656738 1.87646484 1.57055664 C4.35095931 3.23624589 5.61942961 3.36837209 8.5703125 3.37109375 C9.45799316 3.3855957 10.34567383 3.40009766 11.26025391 3.41503906 C12.20562012 3.42245117 13.15098633 3.42986328 14.125 3.4375 C28.94004358 3.84285639 42.60929544 6.43893845 56 13 C56.92039062 13.44085938 57.84078125 13.88171875 58.7890625 14.3359375 C81.98110272 26.16061153 98.30886917 48.3193304 106.875 72.5 C107.62402515 74.98811122 108.33292932 77.48867509 109 80 C109.31839844 81.19625 109.63679688 82.3925 109.96484375 83.625 C115.27963399 107.92118396 112.46167023 133.89442269 106.64086914 157.77954102 C102.58587209 174.20142042 102.58587209 174.20142042 103 191 C104.39445214 193.39659522 104.39445214 193.39659522 106 195 C109.69793527 195.31767742 109.69793527 195.31767742 113 194 C114.8883966 191.02816849 116.26605235 188.02466875 117.640625 184.78515625 C119 182 119 182 122 180 C126.66978992 179.14751816 131.11805266 178.97489955 135.359375 181.28515625 C141.03037094 185.96479388 144.55811446 191.79057229 146 199 C147.08145763 210.93149157 144.04534815 220.17460881 136.90234375 229.71875 C129.22909545 238.92034549 118.10701318 245.87093851 106 247 C90.67999783 248.19168596 77.94649404 245.9966346 65.5234375 236.21484375 C54.00303199 226.1032804 45.53633061 213.02940508 42 198 C42 196.68 42 195.36 42 194 C40.02 194 38.04 194 36 194 C35.89042969 195.07894531 35.78085937 196.15789062 35.66796875 197.26953125 C34.91276322 204.47979093 34.10829532 211.6591222 32.90699768 218.81053162 C29.33889997 240.19704554 28.77094666 261.16580429 29.19189453 282.81542969 C29.25233969 286.15561958 29.28778816 289.49537574 29.3203125 292.8359375 C29.36069138 294.34382339 29.36069138 294.34382339 29.40188599 295.88217163 C29.45814541 303.78674688 27.82293902 309.11290328 22.25 314.8125 C15.70379324 319.2186007 9.89745833 320.45965504 2.1875 320.3984375 C1.37434326 320.40130768 0.56118652 320.40417786 -0.27661133 320.40713501 C-1.98421939 320.40916319 -3.69185134 320.40372118 -5.39941406 320.39111328 C-7.99337369 320.37504106 -10.58577556 320.39100393 -13.1796875 320.41015625 C-14.84896173 320.4081736 -16.51823499 320.40432946 -18.1875 320.3984375 C-19.33472534 320.40754654 -19.33472534 320.40754654 -20.50512695 320.4168396 C-26.70055769 320.33706026 -32.31453228 319.19422363 -37.2421875 315.16796875 C-37.78101563 314.51441406 -38.31984375 313.86085938 -38.875 313.1875 C-39.42929688 312.54167969 -39.98359375 311.89585937 -40.5546875 311.23046875 C-44.48264609 305.1686732 -44.26742344 299.0983069 -44.1953125 292.1328125 C-44.1924826 291.09808807 -44.18965271 290.06336365 -44.18673706 288.99728394 C-44.17558048 285.70640286 -44.15048397 282.41579822 -44.125 279.125 C-44.11496437 276.88802478 -44.10583953 274.65104527 -44.09765625 272.4140625 C-44.07565595 266.9426147 -44.04222338 261.47132711 -44 256 C-44.50992493 256.23187012 -45.01984985 256.46374023 -45.54522705 256.70263672 C-47.88750592 257.7646131 -50.2327679 258.81984031 -52.578125 259.875 C-53.38008301 260.23980469 -54.18204102 260.60460937 -55.00830078 260.98046875 C-74.45572311 269.70306388 -90.91952148 267.64856226 -110.375 260.25 C-112.25246199 259.50618451 -114.12845011 258.75856839 -116 258 C-115.85917465 261.79186964 -115.71140653 265.58343979 -115.5625 269.375 C-115.52318359 270.43589844 -115.48386719 271.49679687 -115.44335938 272.58984375 C-115.21260259 278.37651391 -114.8372777 284.10661309 -114.22045898 289.86474609 C-113.4701694 297.13167046 -113.0158368 304.58028828 -117 311 C-121.81199714 316.4710045 -127.66949575 319.58806094 -134.88061523 320.47998047 C-136.27269631 320.54082886 -137.66553394 320.5859365 -139.05859375 320.6171875 C-139.8065773 320.64225372 -140.55456085 320.66731995 -141.32521057 320.69314575 C-142.89735291 320.7418246 -144.46972773 320.78346141 -146.04223633 320.81835938 C-148.428504 320.87478727 -150.81211137 320.96328157 -153.19726562 321.0546875 C-154.73432121 321.09829348 -156.27143143 321.14002213 -157.80859375 321.1796875 C-158.86209267 321.22160721 -158.86209267 321.22160721 -159.93687439 321.26437378 C-166.50843493 321.36683997 -172.73894067 319.64461587 -177.8125 315.25 C-178.35519531 314.80140625 -178.89789063 314.3528125 -179.45703125 313.890625 C-183.51223776 308.92171373 -184.37093073 303.87533489 -184.40625 297.609375 C-184.42600983 296.17724475 -184.44587075 294.7451159 -184.46582031 293.31298828 C-184.47085571 292.56921936 -184.47589111 291.82545044 -184.4810791 291.05914307 C-184.66641132 268.4408405 -187.22198604 246.52598334 -191.22241211 224.26538086 C-192.90200462 214.87215193 -194.14775803 205.50186197 -195 196 C-197.7568571 203.76596799 -199.38940247 210.78429192 -199.375 219 C-199.37628906 219.70503662 -199.37757813 220.41007324 -199.37890625 221.13647461 C-199.28808542 225.47162092 -198.41541184 228.93550997 -197 233 C-195.77233727 242.95052946 -197.6698913 251.53814548 -203.26953125 259.89453125 C-205.18276449 262.09930479 -206.60221006 262.95027626 -209.5 263.3125 C-214.23041077 260.82903435 -216.08639559 255.91421877 -218.3125 251.25 C-219.70457653 244.66927457 -219.89364856 238.22613322 -217.56640625 231.875 C-215.58770665 226.28460236 -215.17233451 220.68654029 -214.625 214.8125 C-212.81320603 198.04852224 -208.12628382 183.63174453 -196.4375 171 C-191.64623132 165.3926805 -190.16580506 159.7380796 -188.30395508 152.77001953 C-184.72952292 139.75816278 -178.17593146 127.91821851 -169 118 C-168.5467334 117.50048828 -168.0934668 117.00097656 -167.62646484 116.48632812 C-149.72932511 96.94084481 -127.32029724 85.96976805 -101 83 C-101.01571045 82.25540527 -101.0314209 81.51081055 -101.04760742 80.74365234 C-101.45561307 58.47721749 -99.35616017 41.94519737 -89 22 C-88.01 22.33 -87.02 22.66 -86 23 C-86.26683594 22.45988281 -86.53367188 21.91976562 -86.80859375 21.36328125 C-87 19 -87 19 -84.97265625 16.23046875 C-84.01709226 15.20248554 -83.04597944 14.18880925 -82.0625 13.1875 C-81.55323975 12.65560059 -81.04397949 12.12370117 -80.51928711 11.57568359 C-79.02832078 10.03424368 -77.51820696 8.51455743 -76 7 C-75.3090625 6.29746094 -74.618125 5.59492187 -73.90625 4.87109375 C-53.90944955 -14.06655414 -22.62537339 -13.08455329 0 0 Z " fill="#FA9932" transform="translate(251,62)"/>
<path d="M0 0 C0.6192334 0.51828369 1.2384668 1.03656738 1.87646484 1.57055664 C4.35095931 3.23624589 5.61942961 3.36837209 8.5703125 3.37109375 C9.45799316 3.3855957 10.34567383 3.40009766 11.26025391 3.41503906 C12.20562012 3.42245117 13.15098633 3.42986328 14.125 3.4375 C28.94004358 3.84285639 42.60929544 6.43893845 56 13 C56.92039062 13.44085938 57.84078125 13.88171875 58.7890625 14.3359375 C81.98110272 26.16061153 98.30886917 48.3193304 106.875 72.5 C107.62402515 74.98811122 108.33292932 77.48867509 109 80 C109.31839844 81.19625 109.63679688 82.3925 109.96484375 83.625 C115.27963399 107.92118396 112.46167023 133.89442269 106.64086914 157.77954102 C102.58587209 174.20142042 102.58587209 174.20142042 103 191 C104.39445214 193.39659522 104.39445214 193.39659522 106 195 C109.69793527 195.31767742 109.69793527 195.31767742 113 194 C114.8883966 191.02816849 116.26605235 188.02466875 117.640625 184.78515625 C119 182 119 182 122 180 C126.66978992 179.14751816 131.11805266 178.97489955 135.359375 181.28515625 C141.03037094 185.96479388 144.55811446 191.79057229 146 199 C147.08145763 210.93149157 144.04534815 220.17460881 136.90234375 229.71875 C129.22909545 238.92034549 118.10701318 245.87093851 106 247 C90.67999783 248.19168596 77.94649404 245.9966346 65.5234375 236.21484375 C54.00303199 226.1032804 45.53633061 213.02940508 42 198 C42 196.68 42 195.36 42 194 C40.02 194 38.04 194 36 194 C35.89042969 195.07894531 35.78085937 196.15789062 35.66796875 197.26953125 C34.91276322 204.47979093 34.10829532 211.6591222 32.90699768 218.81053162 C29.33889997 240.19704554 28.77094666 261.16580429 29.19189453 282.81542969 C29.25233969 286.15561958 29.28778816 289.49537574 29.3203125 292.8359375 C29.36069138 294.34382339 29.36069138 294.34382339 29.40188599 295.88217163 C29.45814541 303.78674688 27.82293902 309.11290328 22.25 314.8125 C15.70379324 319.2186007 9.89745833 320.45965504 2.1875 320.3984375 C1.37434326 320.40130768 0.56118652 320.40417786 -0.27661133 320.40713501 C-1.98421939 320.40916319 -3.69185134 320.40372118 -5.39941406 320.39111328 C-7.99337369 320.37504106 -10.58577556 320.39100393 -13.1796875 320.41015625 C-14.84896173 320.4081736 -16.51823499 320.40432946 -18.1875 320.3984375 C-19.33472534 320.40754654 -19.33472534 320.40754654 -20.50512695 320.4168396 C-26.70055769 320.33706026 -32.31453228 319.19422363 -37.2421875 315.16796875 C-37.78101563 314.51441406 -38.31984375 313.86085938 -38.875 313.1875 C-39.42929688 312.54167969 -39.98359375 311.89585937 -40.5546875 311.23046875 C-44.48264609 305.1686732 -44.26742344 299.0983069 -44.1953125 292.1328125 C-44.1924826 291.09808807 -44.18965271 290.06336365 -44.18673706 288.99728394 C-44.17558048 285.70640286 -44.15048397 282.41579822 -44.125 279.125 C-44.11496437 276.88802478 -44.10583953 274.65104527 -44.09765625 272.4140625 C-44.07565595 266.9426147 -44.04222338 261.47132711 -44 256 C-44.50992493 256.23187012 -45.01984985 256.46374023 -45.54522705 256.70263672 C-47.88750592 257.7646131 -50.2327679 258.81984031 -52.578125 259.875 C-53.38008301 260.23980469 -54.18204102 260.60460937 -55.00830078 260.98046875 C-74.45572311 269.70306388 -90.91952148 267.64856226 -110.375 260.25 C-112.25246199 259.50618451 -114.12845011 258.75856839 -116 258 C-115.85917465 261.79186964 -115.71140653 265.58343979 -115.5625 269.375 C-115.52318359 270.43589844 -115.48386719 271.49679687 -115.44335938 272.58984375 C-115.21260259 278.37651391 -114.8372777 284.10661309 -114.22045898 289.86474609 C-113.4701694 297.13167046 -113.0158368 304.58028828 -117 311 C-121.81199714 316.4710045 -127.66949575 319.58806094 -134.88061523 320.47998047 C-136.27269631 320.54082886 -137.66553394 320.5859365 -139.05859375 320.6171875 C-139.8065773 320.64225372 -140.55456085 320.66731995 -141.32521057 320.69314575 C-142.89735291 320.7418246 -144.46972773 320.78346141 -146.04223633 320.81835938 C-148.428504 320.87478727 -150.81211137 320.96328157 -153.19726562 321.0546875 C-154.73432121 321.09829348 -156.27143143 321.14002213 -157.80859375 321.1796875 C-158.86209267 321.22160721 -158.86209267 321.22160721 -159.93687439 321.26437378 C-166.50843493 321.36683997 -172.73894067 319.64461587 -177.8125 315.25 C-178.35519531 314.80140625 -178.89789063 314.3528125 -179.45703125 313.890625 C-183.51223776 308.92171373 -184.37093073 303.87533489 -184.40625 297.609375 C-184.42600983 296.17724475 -184.44587075 294.7451159 -184.46582031 293.31298828 C-184.47085571 292.56921936 -184.47589111 291.82545044 -184.4810791 291.05914307 C-184.66641132 268.4408405 -187.22198604 246.52598334 -191.22241211 224.26538086 C-192.90200462 214.87215193 -194.14775803 205.50186197 -195 196 C-197.7568571 203.76596799 -199.38940247 210.78429192 -199.375 219 C-199.37628906 219.70503662 -199.37757813 220.41007324 -199.37890625 221.13647461 C-199.28808542 225.47162092 -198.41541184 228.93550997 -197 233 C-195.77233727 242.95052946 -197.6698913 251.53814548 -203.26953125 259.89453125 C-205.18276449 262.09930479 -206.60221006 262.95027626 -209.5 263.3125 C-214.23041077 260.82903435 -216.08639559 255.91421877 -218.3125 251.25 C-219.70457653 244.66927457 -219.89364856 238.22613322 -217.56640625 231.875 C-215.58770665 226.28460236 -215.17233451 220.68654029 -214.625 214.8125 C-212.81320603 198.04852224 -208.12628382 183.63174453 -196.4375 171 C-191.64623132 165.3926805 -190.16580506 159.7380796 -188.30395508 152.77001953 C-184.72952292 139.75816278 -178.17593146 127.91821851 -169 118 C-168.5467334 117.50048828 -168.0934668 117.00097656 -167.62646484 116.48632812 C-149.72932511 96.94084481 -127.32029724 85.96976805 -101 83 C-101.01571045 82.25540527 -101.0314209 81.51081055 -101.04760742 80.74365234 C-101.45561307 58.47721749 -99.35616017 41.94519737 -89 22 C-88.01 22.33 -87.02 22.66 -86 23 C-86.26683594 22.45988281 -86.53367188 21.91976562 -86.80859375 21.36328125 C-87 19 -87 19 -84.97265625 16.23046875 C-84.01709226 15.20248554 -83.04597944 14.18880925 -82.0625 13.1875 C-81.55323975 12.65560059 -81.04397949 12.12370117 -80.51928711 11.57568359 C-79.02832078 10.03424368 -77.51820696 8.51455743 -76 7 C-75.3090625 6.29746094 -74.618125 5.59492187 -73.90625 4.87109375 C-53.90944955 -14.06655414 -22.62537339 -13.08455329 0 0 Z M-55 11 C-55.92039062 11.48597656 -56.84078125 11.97195312 -57.7890625 12.47265625 C-67.71552263 18.25625492 -74.20998203 25.7981392 -79.375 35.9375 C-79.69686279 36.56906006 -80.01872559 37.20062012 -80.3503418 37.85131836 C-85.19685541 47.9634966 -86.5069373 57.60357298 -86.375 68.75 C-86.36484863 69.9884668 -86.35469727 71.22693359 -86.34423828 72.50292969 C-85.92269906 97.37047603 -77.32123739 118.2571156 -61 137 C-60.44828125 137.63550781 -59.8965625 138.27101562 -59.328125 138.92578125 C-51.97009027 146.82690902 -41.54486111 153.78148799 -30.51953125 154.43359375 C-28.95069817 154.45721876 -27.38137879 154.45786464 -25.8125 154.4375 C-24.98169922 154.42920166 -24.15089844 154.42090332 -23.29492188 154.41235352 C-12.09271924 154.10804001 -3.45138081 150.95719465 5.5625 144.29296875 C8 143 8 143 10.6875 143.17578125 C13 144 13 144 15 146 C15.7013173 149.10317388 15.65244734 151.89035181 15 155 C9.86332843 162.94013669 -2.81728124 166.6331116 -11.4375 168.875 C-27.12889053 172.02459401 -41.48247207 169.56014702 -55.06640625 161.02734375 C-65.73682266 153.65324772 -73.51314326 145.46496882 -81 135 C-81.65871094 134.09507812 -82.31742187 133.19015625 -82.99609375 132.2578125 C-89.89096205 122.15352888 -93.75577727 110.39036884 -98 99 C-120.69060428 100.28973852 -142.5469778 111.45316448 -158 128 C-177.13552578 150.33650528 -181.62698929 178.68005862 -179.859375 207.27490234 C-179.12567142 216.42326888 -177.46800438 225.39163156 -175.49707031 234.34790039 C-173.07783579 245.60161854 -171.93568189 256.87126111 -171.54296875 268.35546875 C-171.49633591 269.68288841 -171.49633591 269.68288841 -171.44876099 271.03712463 C-171.32528418 274.68604377 -171.20752543 278.33459541 -171.12182617 281.98461914 C-171.05459231 284.69274194 -170.95740684 287.39846025 -170.85546875 290.10546875 C-170.84380173 290.9262944 -170.8321347 291.74712006 -170.82011414 292.59281921 C-170.64317117 296.68933733 -170.29243393 298.58698509 -167.86254883 302.01879883 C-164.39930786 304.41574556 -162.52811598 304.61939235 -158.34375 304.59375 C-157.07402344 304.59117187 -155.80429688 304.58859375 -154.49609375 304.5859375 C-153.17738281 304.55757813 -151.85867187 304.52921875 -150.5 304.5 C-149.18128906 304.50257813 -147.86257812 304.50515625 -146.50390625 304.5078125 C-136.78070788 304.41291668 -136.78070788 304.41291668 -129 299 C-128.86062754 296.05099256 -128.84191764 293.19587427 -128.91015625 290.25 C-128.93063029 288.42448242 -128.95080186 286.59896142 -128.97070312 284.7734375 C-129.01362509 281.91294338 -129.0614878 279.05267113 -129.11645508 276.19238281 C-129.29175567 266.36518723 -129.28370204 256.73000094 -127.74609375 247 C-127.58247093 245.91501221 -127.58247093 245.91501221 -127.4155426 244.80810547 C-126.56436013 240.08448924 -125.07910349 236.68654567 -122 233 C-118.375 232.4375 -118.375 232.4375 -115 233 C-113 236 -113 236 -112.33203125 239.4765625 C-111.31346186 243.277893 -111.31346186 243.277893 -107.69921875 244.9609375 C-106.37210513 245.46009068 -105.03402465 245.93086508 -103.6875 246.375 C-103.02298828 246.62121094 -102.35847656 246.86742187 -101.67382812 247.12109375 C-88.68541626 251.82313009 -72.52053107 252.28438563 -59.8671875 246.5 C-58.44792969 245.7575 -58.44792969 245.7575 -57 245 C-55.99195313 244.484375 -54.98390625 243.96875 -53.9453125 243.4375 C-50.33022419 241.51968127 -46.80759244 239.51218989 -43.3515625 237.3203125 C-41 236 -41 236 -38.375 236 C-34.98749085 237.42631964 -34.43259185 238.58906703 -33 242 C-30.30407803 252.60515001 -29.97873655 263.67590185 -29.82421875 274.56640625 C-29.80624237 275.66775406 -29.80624237 275.66775406 -29.78790283 276.79135132 C-29.73928938 279.82292412 -29.69159422 282.85405072 -29.67407227 285.88598633 C-29.6586356 288.13427783 -29.61855385 290.38102348 -29.57421875 292.62890625 C-29.57708138 293.65232872 -29.57708138 293.65232872 -29.58000183 294.69642639 C-29.49827117 297.86061316 -29.14932564 299.7755831 -27.38330078 302.4296875 C-24.2085744 304.52145559 -22.08149262 304.5019865 -18.29296875 304.49609375 C-16.98392578 304.49673828 -15.67488281 304.49738281 -14.32617188 304.49804688 C-13.64611084 304.48765381 -12.9660498 304.47726074 -12.26538086 304.46655273 C-10.20408708 304.43773192 -8.14539086 304.44592034 -6.08398438 304.45898438 C3.41770905 304.50731087 3.41770905 304.50731087 12 301 C14.75968068 297.99373665 15.37525943 296.03442135 15.38476562 291.9855957 C15.39487671 290.98546951 15.40498779 289.98534332 15.41540527 288.95491028 C15.41238403 287.8727977 15.40936279 286.79068512 15.40625 285.67578125 C15.42250427 283.97532906 15.42250427 283.97532906 15.43908691 282.24052429 C15.47337188 278.59779329 15.48890619 274.95537086 15.5 271.3125 C15.57062449 248.83088116 17.29356559 227.09742814 21.08349609 204.93424988 C21.70509088 201.24838055 22.15464712 197.74098752 22 194 C21.06027344 193.72736328 21.06027344 193.72736328 20.1015625 193.44921875 C19.28429687 193.19785156 18.46703125 192.94648438 17.625 192.6875 C16.81289063 192.44386719 16.00078125 192.20023438 15.1640625 191.94921875 C13 191 13 191 11 188 C10.68452205 184.97141171 10.50941279 182.88918932 12 180.1875 C17.27349121 177.05636459 25.01537648 177.87008223 31 177.9375 C31.77472656 177.94201172 32.54945313 177.94652344 33.34765625 177.95117188 C35.23180524 177.96280242 37.11591365 177.98073094 39 178 C38.95875 176.741875 38.9175 175.48375 38.875 174.1875 C38.7609626 170.70935927 38.94074319 170.08888522 41 167 C41.66 166.34 42.32 165.68 43 165 C45.875 165.3125 45.875 165.3125 49 166 C51.51225393 169.76838089 51.73787194 173.30445115 52.3125 177.6875 C54.33188702 191.45080267 57.51571365 203.6686377 66 215 C66.63164062 215.84949219 67.26328125 216.69898438 67.9140625 217.57421875 C74.01001116 224.66332758 82.82329442 229.4615523 92 231 C103.81174058 231.86875603 113.83809521 229.81302014 123 222 C128.20215983 216.31884044 131.31432088 211.04431655 131.125 203.1875 C131.10695313 202.21167969 131.08890625 201.23585938 131.0703125 200.23046875 C131.04710937 199.49441406 131.02390625 198.75835937 131 198 C129.68 198 128.36 198 127 198 C125.59821145 199.61653275 125.59821145 199.61653275 124.5625 201.75 C121.86296352 206.40834649 119.15290591 208.97247672 114.25 211.3125 C108.49824994 212.52921636 103.27503518 212.17804556 98.25 208.9375 C92.34933345 204.17315671 88.90850821 197.50398992 88 190 C87.3451156 180.21940592 88.93671274 171.57757506 91.3125 162.125 C91.96950357 159.3820502 92.60907131 156.63527291 93.2421875 153.88671875 C93.39805832 153.2102681 93.55392914 152.53381744 93.71452332 151.83686829 C101.01823313 119.65038689 100.84628135 86.80982504 83.5234375 57.8359375 C79.74252605 51.86215699 75.04256897 46.91742492 70 42 C69.27167969 41.26265625 68.54335938 40.5253125 67.79296875 39.765625 C56.4572791 28.91364752 40.63508853 21.65079211 25 20 C23.29085182 20.05032028 21.58237235 20.1260178 19.875 20.21875 C8.04434239 20.84279354 0.58427025 20.50595882 -8.90234375 13.26953125 C-21.1525059 4.29431787 -41.74383192 3.95374031 -55 11 Z " fill="#BC7000" transform="translate(251,62)"/>
<path d="M0 0 C0.33 0 0.66 0 1 0 C1.14695313 0.72703125 1.29390625 1.4540625 1.4453125 2.203125 C5.07573282 18.47742298 13.53303457 32.03589755 27 42 C30.55894797 44.09586858 34.25163628 45.85119884 37.99609375 47.58984375 C41 49 41 49 44 51 C29.48 51 14.96 51 0 51 C0 34.17 0 17.34 0 0 Z " fill="#EDEDED" transform="translate(0,384)"/>
<path d="M0 0 C15.18 0 30.36 0 46 0 C46 15.51 46 31.02 46 47 C44.39974157 43.79948314 43.0983228 40.70146309 41.8125 37.375 C39.29284331 31.28025521 36.0587144 26.17658066 32 21 C31.22527344 20.00871094 30.45054687 19.01742188 29.65234375 17.99609375 C21.94358671 8.84902735 11.1590509 4.32931204 0 1 C0 0.67 0 0.34 0 0 Z " fill="#EDEEED" transform="translate(380,0)"/>
<path d="M0 0 C14.85 0 29.7 0 45 0 C42.64670693 1.17664654 40.2832747 2.33399038 37.8984375 3.4453125 C20.72350708 11.63291791 10.56681391 22.5554263 3 40 C2.11029342 42.69667703 1.50376614 45.2012992 1 48 C0.67 48 0.34 48 0 48 C0 32.16 0 16.32 0 0 Z " fill="#EDEDED" transform="translate(0,0)"/>
<path d="M0 0 C0.33 0 0.66 0 1 0 C1 15.84 1 31.68 1 48 C-13.52 48 -28.04 48 -43 48 C-40.27831373 46.18554249 -37.56629311 44.85484969 -34.60522461 43.48901367 C-18.76478067 36.04732999 -8.02685746 24.65714374 -2 8 C-1.22209437 5.34178533 -0.59102101 2.70884629 0 0 Z " fill="#EDEDED" transform="translate(425,387)"/>
<path d="M0 0 C2.82424288 2.19022918 4.41508603 3.83017207 6 7 C6.55258891 12.03671207 6.53929549 15.92140903 4.25 20.5 C1.21576314 23.87137429 -0.41174963 24.79283691 -4.875 25.375 C-8.96629067 24.88404512 -10.89074515 23.69468753 -14 21 C-16.43280575 16.62094965 -17.74480171 13.00081149 -17 8 C-12.78431994 0.44084955 -8.36167202 -1.346936 0 0 Z " fill="#BB6F00" transform="translate(304,164)"/>
<path d="M0 0 C0.33 0 0.66 0 1 0 C1 4.29 1 8.58 1 13 C-2 9 -2 9 -1.75 5.375 C-1 2 -1 2 0 0 Z " fill="#FBA03C" transform="translate(56,256)"/>
</svg>
