<?xml version="1.0" encoding="UTF-8"?>
<svg xmlns="http://www.w3.org/2000/svg" style="display:none">
  <!-- Home -->
  <symbol id="icon-home" viewBox="0 0 24 24">
    <path d="M3 10.5 12 3l9 7.5V21a1 1 0 0 1-1 1h-6v-7H10v7H4a1 1 0 0 1-1-1v-10.5z" fill="currentColor"/>
  </symbol>

  <!-- News -->
  <symbol id="icon-news" viewBox="0 0 24 24">
    <path d="M4 5h16v2H4V5zm0 4h10v2H4V9zm0 4h16v2H4v-2zm0 4h10v2H4v-2z" fill="currentColor"/>
  </symbol>

  <!-- Babies -->
  <symbol id="icon-baby" viewBox="0 0 24 24">
    <path d="M12 2a5 5 0 0 0-5 5v1H5v2h2v2H5v2h2v2H5v2h2v1a5 5 0 0 0 10 0v-1h2v-2h-2v-2h2v-2h-2V8h2V6h-2V5a5 5 0 0 0-5-5zm0 2a3 3 0 0 1 3 3v1H9V7a3 3 0 0 1 3-3z" fill="currentColor"/>
  </symbol>

  <!-- Calendar -->
  <symbol id="icon-calendar" viewBox="0 0 24 24">
    <path d="M7 2v2H5a2 2 0 0 0-2 2v2h18V6a2 2 0 0 0-2-2h-2V2h-2v2H9V2H7zm14 8H3v10a2 2 0 0 0 2 2h14a2 2 0 0 0 2-2V10zm-5 4v2H8v-2h8z" fill="currentColor"/>
  </symbol>

  <!-- Heart -->
  <symbol id="icon-heart" viewBox="0 0 24 24">
    <path d="M12 21s-8-6.1-8-11.5S7.5 2 12 7.1C16.5 2 20 4.5 20 9.5S12 21 12 21z" fill="currentColor"/>
  </symbol>

  <!-- Gift -->
  <symbol id="icon-gift" viewBox="0 0 24 24">
    <path d="M20 12v8a2 2 0 0 1-2 2h-5v-10h7zM11 22H6a2 2 0 0 1-2-2v-8h7v10zM22 8v2H2V8a2 2 0 0 1 2-2h16a2 2 0 0 1 2 2zm-7-2h-2V4a2 2 0 1 0-4 0v2H7a3 3 0 1 1 0-6h2a3 3 0 0 1 6 0h2a3 3 0 1 1 0 6h-2z" fill="currentColor"/>
  </symbol>
</svg>
